<?xml version="1.0"?>

<svg width="1205" height="577" viewBox="0 0 1205 577" version="1.1" xmlns="http://www.w3.org/2000/svg" xmlns:xlink="http://www.w3.org/1999/xlink">  <title>Group 4</title> <desc>Created with Sketch.</desc> <g id="laberinth" stroke="none" stroke-width="1" fill="none" fill-rule="evenodd"> <g transform="translate(-119.000000, -257.000000)" id="Group-4"> <g transform="translate(119.000000, 261.000000)"> <g id="Group-3"> <g id="Group-2"> <g id="lab-unicursal" transform="translate(700.000000, 1.000000)" stroke="#FEC343" stroke-linecap="round" stroke-linejoin="round" stroke-width="10.234179"> <path d="M227.356043,457.109489 C127.394,447.363432 50.4281137,367.086144 42.0530899,266.730403 M42.3601144,228.328547 C52.8821583,122.750647 142.583079,40.1975043 251.566583,40.1975043 C367.618043,40.1975043 461.804755,133.805647 461.804755,249.144252 C461.804755,349.522676 390.466698,433.442237 295.463094,453.523309 M161.46041,229.618986 C170.857712,188.612763 207.593029,157.994532 251.436137,157.994532 C302.38818,157.994532 343.740568,199.346921 343.740568,250.29895 C343.740568,287.868712 321.257576,320.219201 289.021086,334.620935 M229.60995,340.004237 C193.199101,331.165986 165.207647,300.716791 160.002978,263.024072 M304.086446,246.819669 L342.950727,246.819683 M364.204626,246.819669 L404.890676,246.212417 M423.359827,246.819669 C423.359827,246.819669 458.329065,246.819683 458.936302,246.819683 M268.089129,138.831993 C322.40723,146.888698 364.12682,193.751374 364.12682,250.29895 C364.12682,306.047309 323.148827,352.382597 269.28836,361.571036 L268.192014,277.150381 L268.44646,277.361158 C277.722727,271.846165 283.714374,261.768029 283.714374,250.29895 C283.714374,232.481374 269.253719,218.020727 251.436137,218.020727 C233.618547,218.020727 219.157892,232.481374 219.157892,250.29895 C219.157892,268.116547 233.618547,282.577201 251.011518,282.440144 L250.948115,498.249036 C285.170144,498.81518 317.239669,492.425079 346.913482,479.488101 C437.53754,442.316906 500.608468,347.775187 499.260691,249.704662 C499.314986,211.420108 490.416029,173.164691 473.325935,138.897619 C431.052439,51.399223 334.133727,-5.66300647 237.041446,0.637511511 C138.230727,4.36354029 46.385054,73.3476763 14.5856345,166.856317 C-18.300284,257.075856 7.4479705,364.813252 77.8307698,430.205856 C118.241633,469.760496 172.586388,493.111914 228.507914,498.076532 L228.44618,420.257518 C144.805712,408.759079 79.8518201,337.500216 79.8518201,250.29895 C79.8518201,163.049094 145.082482,90.9420647 229.403532,80.1181655 M212.119396,355.932662 C169.282101,339.967619 138.745446,298.677719 138.745446,250.29895 C138.745446,195.068799 178.543763,149.077504 231.007612,139.457914 M268.117014,79.5163381 C355.013662,87.9120072 423.020424,161.211842 423.020424,250.29895 C423.020424,331.028971 367.174417,398.794734 292.032655,417.045921 M443.017863,262.60695 C437.122842,355.628655 366.16846,429.00595 274.413892,439.338403 M209.199496,437.601748 C123.52882,418.34323 59.4655683,341.757 59.4655683,250.29895 C59.4655683,144.331216 145.468367,58.3284029 251.436137,58.3284029 C350.815978,58.3284029 432.636108,133.970216 442.425345,230.782612 M271.241295,21.9102813 C349.052827,28.8488137 422.037489,77.7522158 456.214576,148.172921 C471.944043,179.569317 480.134489,214.619935 480.084547,249.697252 C481.325007,339.552058 423.275496,426.173662 339.866504,460.230892 C325.770122,466.34877 294.849317,476.064151 273.886288,477.775741 L273.699511,400.380424 L274.025504,400.703058 C348.294187,390.299094 405.13959,326.867331 405.13959,250.298935 C405.13959,166.215755 336.588468,97.9743381 252.123669,97.9743381 C174.976079,97.9743381 111.104388,154.904353 100.616921,228.837237 M209.825734,474.543871 C165.955763,466.728626 124.306583,446.47523 92.2355899,415.083734 C27.7464676,355.166942 4.15430288,256.451201 34.286441,173.78641 C62.684554,90.2795396 143.347194,28.1189 231.243266,21.8605547 M251.436137,402.62959 C171.358532,402.62959 105.648719,340.737554 99.5651942,262.211942 M321.616245,266.074777 C315.736827,292.312403 295.506223,313.148101 269.607705,319.898612 M211.172612,309.887022 C192.076281,296.953201 179.517957,275.083741 179.517957,250.29895 C179.517957,210.600137 211.737309,178.380784 251.436137,178.380784 C284.028993,178.380784 311.580345,200.098122 320.399288,229.841863 M383.14282,231.144928 C373.847755,166.751014 318.390856,117.222029 251.436137,117.222029 C177.977662,117.222029 118.359194,176.840496 118.359194,250.29895 C118.359194,316.482813 166.754266,371.432094 229.300597,381.579691 L228.537259,297.331878 L228.792101,297.653734 C211.161453,289.555662 198.77164,271.36541 198.77164,250.29895 C198.77164,227.842144 212.850863,208.653719 232.658086,201.084899 M383.90505,263.093014 C377.460338,330.556619 320.579065,383.375899 251.436137,383.375899 M270.28141,201.110633 C290.053245,208.697151 304.100626,227.867554 304.100626,250.29895 C304.100626,266.121309 297.111482,280.321187 286.054086,289.977662 M251.016266,217.894065 L251.445669,177.960453 M251.016266,157.778935 L250.157489,116.986547 M21.2906446,246.234036 L59.0772878,247.092827 M79.6881942,246.234036 L117.474835,247.092827 M139.803302,246.234036 L177.589942,247.092827 M249.433561,97.4351007 L249.433561,57.9635612 M249.433561,39.745936 L249.433561,0.274396403" id="path13121"></path> </g> <g id="lab-maze" fill="#FEC343" fill-rule="nonzero"> <g id="Group" transform="translate(250.458716, 250.286442) scale(-1, 1) rotate(-180.000000) translate(-250.458716, -250.286442) translate(0.458716, 0.286442)"> <path d="M233.251784,498.527013 C198.888889,495.795107 170.19368,487.986748 140.519878,473.440367 C89.5616718,448.353721 50.224261,409.11315 25.2344546,358.154944 C7.56880734,322.135576 0.147808359,289.923547 0.0500899141,249.80632 C-0.0458715596,209.199796 7.85932722,175.423038 25.9174312,139.11315 C58.7155963,72.930683 119.332314,24.3170234 190.784913,6.74821611 C211.478084,1.67176351 226.314985,0.0101936799 249.352701,0.0101936799 C290.835882,0.0101936799 324.70948,7.91539246 362.094801,26.2691131 C386.692151,38.2772681 406.702345,52.5280326 426.911315,72.0489297 C470.448522,114.510703 495.239551,168.883792 498.853211,230.086646 L499.541284,241.508665 L491.539246,241.508665 L483.634047,241.508665 L483.634047,235.259939 C483.634047,218.761468 479.240571,192.502548 473.384302,173.664628 C449.174312,96.5494393 382.991845,37.7879715 300.703364,20.412844 C240.963303,7.72171254 178.690112,17.7777778 128.318043,48.2313965 C114.260958,56.7227319 105.769623,62.9714577 89.7604485,76.7329256 C89.2711519,77.2222222 93.567788,82.196738 100.49949,89.2252803 L112.018349,100.840979 L116.804281,96.5443425 C141.111111,74.6788991 175.468909,57.5942915 209.148828,50.667686 C289.092762,34.0723751 371.87054,68.5321101 418.042813,137.640163 C458.154944,197.680938 463.2263,272.844037 431.406728,337.655454 C411.299694,378.654434 378.792049,411.060143 337.696228,431.365953 C264.877676,467.288481 179.464832,455.963303 116.697248,401.982671 C77.8491335,368.598369 51.9775739,318.521916 47.3904179,267.859327 C46.9979613,262.782875 46.8042813,258.292559 46.9979613,257.900102 C47.1916412,257.410805 50.6116208,257.120285 54.5158002,257.120285 L61.6411825,257.120285 L62.8134557,268.149847 C66.1314985,299.189602 76.1875637,327.696228 92.5840979,352.680938 C118.256881,392.018349 158.083588,420.229358 203.470948,431.258919 C212.940877,433.506626 233.634047,436.727829 239.199796,436.727829 L241.544343,436.727829 L241.544343,421.207951 C241.544343,404.123344 241.641182,404.5158 235.295617,404.5158 C228.756371,404.5158 213.333333,401.294597 202.104995,397.584098 C153.690112,381.574924 117.084608,344.969419 101.075433,296.554536 C79.5107034,231.452599 105.086646,158.827727 163.165138,119.882773 C184.638124,105.433231 213.14475,95.382263 236.666667,93.9194699 L241.060143,93.6289501 L241.350663,101.146789 L241.646279,108.562691 L235.98369,109.245668 C201.819572,112.956167 173.022426,126.523955 149.69419,149.755352 C130.071356,169.276249 117.579001,192.410805 111.529052,220.331295 C108.404689,234.780836 108.404689,263.868502 111.529052,278.312946 C116.702345,302.324159 128.61366,326.437309 143.154944,342.543323 C143.93476,343.41998 166.38634,322.043833 166.38634,320.382263 C166.38634,319.989806 164.041794,316.574924 161.116208,312.767584 C155.066259,304.663609 149.011213,293.04791 145.40265,282.217125 C142.670744,273.82263 140.229358,259.571865 141.401631,258.399592 C142.181448,257.619776 155.652396,256.641182 155.652396,257.420999 C155.652396,257.614679 156.335372,261.620795 157.115189,266.207951 C163.848114,304.765545 193.914373,334.831804 232.471967,341.56473 C237.059123,342.344546 241.060143,343.027523 241.258919,343.027523 C242.038736,343.027523 241.06524,356.498471 240.280326,357.278287 C239.108053,358.450561 224.857288,356.009174 216.462793,353.277268 C205.626911,349.663609 194.011213,343.61366 185.912334,337.56371 C182.104995,334.633028 178.690112,332.293578 178.297655,332.293578 C176.636086,332.293578 155.259939,354.745158 156.141692,355.524975 C172.247706,370.071356 196.360856,381.977574 220.372069,387.150866 C234.821611,390.275229 263.909276,390.275229 278.353721,387.150866 C327.06422,376.610601 365.718654,342.833843 382.018349,296.860347 C387.680938,280.657492 389.337411,270.504587 389.337411,249.811417 C389.434251,229.801223 388.261978,221.503568 383.384302,205.98369 C378.603466,190.754332 367.471967,170.254842 357.222222,158.053007 L354.780836,155.122324 L343.068298,166.834862 L331.355759,178.450561 L333.700306,180.988787 C343.267074,191.335372 353.124363,212.324159 356.834862,230.285423 C358.496432,237.900102 358.496432,260.840979 356.834862,268.353721 C348.343527,308.960245 320.718654,340.392457 282.2579,353.277268 C273.863405,356.009174 259.61264,358.450561 258.440367,357.278287 C258.053007,356.885831 257.56371,353.567788 257.364934,349.857288 L256.972477,343.124363 L260.682977,342.538226 C290.453619,337.75739 312.319062,324.383282 327.35474,301.931702 C337.115189,287.385321 341.799185,272.64526 342.777778,253.710499 C345.122324,203.827727 311.442406,163.414883 261.365953,156.192661 L257.166157,155.606524 L257.166157,171.518858 L257.166157,187.431193 L262.635066,188.603466 C265.662589,189.189602 271.906218,191.534149 276.493374,193.776758 C291.427115,200.998981 304.607543,216.518858 309.291539,232.624873 C310.168196,235.555556 310.851172,238.481142 310.851172,239.164118 C310.851172,240.239551 297.573904,242.874618 296.111111,241.992864 C295.820591,241.702345 295.234455,239.847095 294.841998,237.895005 C293.863405,231.941896 289.082569,222.864424 283.715596,217.008155 C265.948012,197.584098 232.859327,197.680938 214.801223,217.201835 C201.529052,231.549439 198.695209,252.441386 207.579001,271.472987 C210.310907,277.522936 221.146789,288.358818 227.196738,291.090724 C247.110092,300.361876 270.147808,296.457696 283.715596,281.620795 C289.082569,275.764526 293.868502,266.687054 294.841998,260.733945 C295.234455,258.781855 295.820591,256.926606 296.111111,256.636086 C297.573904,255.759429 310.851172,258.394495 310.851172,259.464832 C310.851172,260.147808 310.168196,263.078491 309.291539,266.004077 C303.62895,285.331295 287.135576,302.120285 267.217125,308.756371 C226.518858,322.329256 181.906218,284.943935 187.665647,241.992864 C190.397554,221.202854 204.260958,202.461774 223.685015,193.088685 C227.492355,191.233435 233.154944,189.184506 236.08053,188.598369 L241.549439,187.426096 L241.549439,171.513761 L241.549439,155.606524 L237.45158,156.192661 C215,159.413863 195.672783,169.077472 181.615698,184.011213 C167.268094,199.143731 159.847095,214.954128 156.136595,237.991845 L155.550459,241.702345 L148.817533,241.309888 C145.107034,241.116208 141.788991,240.626911 141.396534,240.234455 C140.224261,239.062181 142.665647,224.811417 145.397554,216.416922 C158.282365,177.956167 189.714577,150.331295 230.321101,141.839959 C237.83894,140.178389 260.77472,140.178389 268.389399,141.839959 C286.350663,145.550459 307.33945,155.407747 317.686035,164.974516 L320.224261,167.313965 L331.743119,155.698267 L343.358818,144.082569 L340.530071,141.544343 C335.061162,136.66157 318.955148,126.314985 310.657492,122.410805 C296.116208,115.67788 279.617737,111.085627 262.731906,109.230377 L257.069317,108.547401 L257.359837,101.131498 L257.650357,93.6136595 L262.043833,93.9041794 C271.416922,94.490316 285.468909,97.420999 296.794088,101.029562 C340.815494,115.280326 377.324159,149.541284 394.311927,192.594292 C398.705403,203.720693 403.195719,220.998981 404.072375,230.270133 C405.147808,242.777778 403.292559,241.508665 421.253823,241.508665 L436.972477,241.508665 L436.289501,234.480122 C433.165138,200.902141 423.307849,171.911315 405.835882,145.356779 C349.123344,59.2609582 230.815494,35.8358818 144.429154,93.6238532 C116.610601,112.171254 95.1325178,137.06422 80.5912334,167.324159 C70.733945,187.920489 65.3618756,207.054027 62.8236493,230.575943 L61.6513761,241.508665 L54.5259939,241.508665 C50.6218145,241.508665 47.2069317,241.218145 47.0081549,240.825688 C46.3251784,239.459735 48.2772681,221.692151 50.3261978,210.759429 C56.2793068,179.327217 73.4607543,143.603466 93.9602446,119.882773 L100.795107,111.977574 L89.1743119,100.356779 C82.2426096,93.4250765 77.2680938,89.2303772 76.7787971,89.714577 C63.0173293,105.723751 56.7686035,114.215087 48.2772681,128.272171 C36.656473,147.502548 27.8695209,168.491335 22.4057085,190.259939 C16.9367992,212.028542 15.5708461,223.547401 15.5708461,249.317023 C15.5708461,275.086646 16.9367992,286.605505 22.4057085,308.374108 C43.0988787,390.372069 108.792049,455.9684 190.79001,476.365953 C209.531091,480.953109 221.829766,482.614679 242.522936,483.297655 C371.08053,487.104995 476.992864,393.200815 483.33843,269.622834 L483.924567,257.130479 L491.636086,257.130479 L499.250765,257.130479 L499.250765,261.330275 C499.250765,268.944954 497.395515,286.906218 495.346585,298.12946 C485.973496,352.395515 456.299694,403.058104 412.370031,439.857288 C385.234455,462.696228 347.166157,482.222222 313.002039,490.810398 C287.038736,497.45158 256.187564,500.382263 233.251784,498.527013 Z M280.591233,434.194699 C323.348624,427.655454 364.933741,404.133537 392.655454,370.846075 C418.231397,340.295617 432.482161,305.346585 436.289501,264.250765 L436.972477,257.125382 L421.253823,257.125382 C403.292559,257.125382 405.147808,255.856269 404.072375,268.348624 C401.926606,290.703364 390.015291,320.570846 375.081549,340.876656 C349.505607,375.530071 307.726809,400.224261 267.900102,404.0316 C255.988787,405.203874 257.16106,403.251784 257.16106,421.213048 L257.16106,436.926606 L264.286442,436.243629 C268.098879,435.953109 275.514781,434.979613 280.591233,434.194699 Z" id="Shape"></path> <polygon id="Path" points="241.549439 249.317023 241.549439 241.508665 249.357798 241.508665 257.166157 241.508665 257.166157 249.317023 257.166157 257.125382 249.357798 257.125382 241.549439 257.125382"></polygon> </g> </g> <text id="MAZE" font-family="Futura-Bold, Futura" font-size="30" font-weight="bold" line-spacing="22" letter-spacing="-0.341666667" fill="#FFFFFF"> <tspan x="204" y="581">MAZE</tspan> </text> <text id="UNICURSAL" font-family="Futura-Bold, Futura" font-size="30" font-weight="bold" line-spacing="32" letter-spacing="-0.341666667" fill="#FFFFFF"> <tspan x="858" y="574">UNICURSAL</tspan> </text> </g> </g> </g> </g> </g>
</svg>