<?xml version="1.0"?>

<svg width="662" height="153" viewBox="0 0 662 153" version="1.1" xmlns="http://www.w3.org/2000/svg" xmlns:xlink="http://www.w3.org/1999/xlink">  <title>Tiendeo</title> <desc>Created with Sketch.</desc> <defs> <linearGradient x1="50%" y1="0%" x2="50%" y2="100%" id="linearGradient-1"> <stop stop-color="#ED213A" offset="0%"></stop> <stop stop-color="#93291E" offset="100%"></stop> </linearGradient> </defs> <g id="logo" stroke="none" stroke-width="1" fill="none" fill-rule="evenodd"> <g transform="translate(-79.000000, -397.000000)" fill="url(#linearGradient-1)" fill-rule="nonzero" id="Tiendeo" stroke="#E02020"> <path d="M180.2,407 L175.6,430.2 L142.4,430.2 L142.4,546 L114,546 L114,430.2 L80,430.2 L80,407 L180.2,407 Z M215,546 L188.2,546 L188.2,445.4 L215,441.2 L215,546 Z M218.2,415.4 C218.2,424.6 210.8,432 201.6,432 C192.6,432 185.2,424.6 185.2,415.4 C185.2,406.2 192.8,398.8 202,398.8 C211,398.8 218.2,406.2 218.2,415.4 Z M323.2,503.2 L264,503.2 L264,504 C264,519.8 271.8,528.8 285.6,528.8 C294.8,528.8 303.4,525.4 311.6,518.6 L322,534.6 C310.2,544.2 297.8,548.8 283.4,548.8 C254,548.8 235,528 235,495.8 C235,477.4 238.8,465.2 247.8,455.2 C256.2,445.8 266.4,441.4 280,441.4 C291.8,441.4 303,445.4 309.6,452.2 C319,461.8 323.2,475.6 323.2,497 L323.2,503.2 Z M295.4,483.6 L295.4,482.4 C295.4,474.8 294.6,470.8 292.2,467 C289.6,463 285.8,461 280.4,461 C270.2,461 264.4,469 264.4,483.2 L264.4,483.6 L295.4,483.6 Z M421,546 L394.6,546 L394.6,479.4 C394.6,467.8 392.6,464.4 385.6,464.4 C380.2,464.4 373.2,468 367,473.6 L367,546 L340.2,546 L340.2,471.8 C340.2,463 339,454.6 336.6,447.8 L360.4,441 C362.8,445.2 364.2,449.6 364.2,453.8 C368.2,451 371.6,448.6 376,446.2 C381.4,443.4 388.4,441.8 394.4,441.8 C405.8,441.8 415.8,447.8 419,456.6 C420.4,460.4 421,464.8 421,471.2 L421,546 Z M532.6,546 L508.6,546 C507.8,544.4 507.4,542.8 507,540 C500.4,545.8 492.6,548.6 483.4,548.6 C457.4,548.6 441,528.4 441,496.6 C441,464.6 458.8,442.6 484.8,442.6 C492.2,442.6 498,444.4 503,448.4 C502.6,446.2 502.2,439.2 502.2,433.2 L502.2,398 L528.8,402.2 L528.8,508.6 C528.8,533.8 530.8,542 532.6,546 Z M502.6,519.4 L502.6,470.6 C497.6,466.2 492.8,464 488,464 C476,464 470.8,474 470.8,496.8 C470.8,518.8 475.4,526 489.4,526 C494.4,526 500,522.6 502.6,519.4 Z M637,503.2 L577.8,503.2 L577.8,504 C577.8,519.8 585.6,528.8 599.4,528.8 C608.6,528.8 617.2,525.4 625.4,518.6 L635.8,534.6 C624,544.2 611.6,548.8 597.2,548.8 C567.8,548.8 548.8,528 548.8,495.8 C548.8,477.4 552.6,465.2 561.6,455.2 C570,445.8 580.2,441.4 593.8,441.4 C605.6,441.4 616.8,445.4 623.4,452.2 C632.8,461.8 637,475.6 637,497 L637,503.2 Z M609.2,483.6 L609.2,482.4 C609.2,474.8 608.4,470.8 606,467 C603.4,463 599.6,461 594.2,461 C584,461 578.2,469 578.2,483.2 L578.2,483.6 L609.2,483.6 Z M739.6,494.4 C739.6,512 735.6,524 726.8,534 C719,542.8 708.8,548.2 693,548.2 C665.2,548.2 647,527.4 647,495.2 C647,463 665.4,441.6 693,441.6 C707.6,441.6 719,446.6 727.8,457 C736,466.6 739.6,477.8 739.6,494.4 Z M710.4,494.2 C710.4,480.4 708.6,471.4 705,466.8 C702.4,463.4 698.2,461.4 693.4,461.4 C687,461.4 681.8,465.4 679.6,471.8 C677.8,477.2 676.8,484.4 676.8,494.6 C676.8,506.4 678,515.2 680.2,520.4 C682.6,526 688.6,528.8 693.8,528.8 C705.4,528.8 710.4,518.4 710.4,494.2 Z"></path> </g> </g>
</svg>